<svg width="23" height="23" viewBox="0 0 23 23" fill="none" xmlns="http://www.w3.org/2000/svg">
<path d="M11.375 0.5C13.2727 0.500985 15.1371 0.998165 16.7832 1.94238C18.4292 2.88664 19.8 4.24523 20.7588 5.88281L20.793 5.9375C20.793 5.93751 20.7943 5.93947 20.7969 5.94434C20.8 5.95044 20.8035 5.95753 20.8086 5.96777L20.8223 5.99316C21.7601 7.63126 22.2523 9.48645 22.25 11.374V11.375C22.2508 13.7624 21.466 16.0843 20.0166 17.9814C18.5673 19.8783 16.5339 21.2453 14.2305 21.8721C11.9269 22.4989 9.48121 22.3503 7.27051 21.4492C5.05977 20.548 3.20699 18.9444 1.99805 16.8857L1.99609 16.8838C1.97098 16.8413 1.95513 16.794 1.94824 16.7451C1.94136 16.6962 1.94364 16.6464 1.95605 16.5986C1.96856 16.5507 1.99052 16.5052 2.02051 16.4658C2.05051 16.4264 2.08799 16.393 2.13086 16.3682H2.13184L10.752 11.3506L11 11.2061V0.875C11 0.775544 11.04 0.679701 11.1104 0.609375C11.1631 0.556812 11.2298 0.521185 11.3018 0.506836L11.375 0.5ZM7.92676 1.11035C7.98582 1.11856 8.04205 1.14051 8.09082 1.1748C8.13963 1.20914 8.17934 1.25476 8.20703 1.30762C8.22083 1.33401 8.2321 1.36193 8.23926 1.39062L8.25 1.47949V9.35156C8.25001 9.41731 8.23302 9.4821 8.2002 9.53906C8.18374 9.56757 8.1637 9.59411 8.14062 9.61719L8.0625 9.67676L1.2373 13.6191C1.18049 13.6518 1.11633 13.6699 1.05078 13.6699H1.04883C0.995869 13.6701 0.943484 13.6582 0.895508 13.6357L0.892578 13.6348L0.816406 13.5879C0.793161 13.5694 0.772278 13.548 0.753906 13.5244C0.717065 13.4771 0.69161 13.4213 0.680664 13.3623C0.210188 10.8153 0.66409 8.184 1.95996 5.94141C3.25587 3.69882 5.30931 1.99213 7.75098 1.12793L7.75 1.12695C7.80639 1.10707 7.86753 1.10218 7.92676 1.11035ZM6.77246 2.35742C5.11145 3.20685 3.7165 4.4979 2.74219 6.08887C1.76792 7.67985 1.25163 9.50941 1.25 11.375L1.25195 11.6299C1.25375 11.7199 1.25716 11.8139 1.26465 11.9082L1.32715 12.6973L2.01367 12.3018L7.25 9.2793L7.5 9.13477V1.98535L6.77246 2.35742Z" fill="white" stroke="white"/>
</svg>
