<svg width="21" height="21" viewBox="0 0 21 21" fill="none" xmlns="http://www.w3.org/2000/svg">
<path d="M6.125 7.66285H0.875C0.642936 7.66285 0.420376 7.57066 0.256282 7.40657C0.0921874 7.24247 0 7.01991 0 6.78785V1.53785C0 1.30578 0.0921874 1.08322 0.256282 0.919129C0.420376 0.755035 0.642936 0.662847 0.875 0.662847C1.10706 0.662847 1.32962 0.755035 1.49372 0.919129C1.65781 1.08322 1.75 1.30578 1.75 1.53785V4.67582L3.35016 3.07566C5.30164 1.11436 7.95199 0.00810566 10.7188 3.46583e-05H10.7767C13.5199 -0.00703239 16.1555 1.06692 18.1125 2.98925C18.2723 3.15273 18.3618 3.37224 18.3618 3.60084C18.3618 3.82944 18.2723 4.04896 18.1126 4.21245C17.9528 4.37594 17.7354 4.47041 17.5068 4.47566C17.2783 4.4809 17.0568 4.3965 16.8897 4.2405C15.2584 2.63934 13.0625 1.74468 10.7767 1.75003H10.7275C8.42207 1.75713 6.21368 2.6788 4.58719 4.31269L2.98703 5.91285H6.125C6.35706 5.91285 6.57962 6.00503 6.74372 6.16913C6.90781 6.33322 7 6.55578 7 6.78785C7 7.01991 6.90781 7.24247 6.74372 7.40657C6.57962 7.57066 6.35706 7.66285 6.125 7.66285ZM20.125 12.9128H14.875C14.6429 12.9128 14.4204 13.005 14.2563 13.1691C14.0922 13.3332 14 13.5558 14 13.7878C14 14.0199 14.0922 14.2425 14.2563 14.4066C14.4204 14.5707 14.6429 14.6628 14.875 14.6628H18.013L16.4128 16.263C14.7866 17.8966 12.5786 18.8183 10.2736 18.8257H10.2244C7.93863 18.831 5.74264 17.9364 4.11141 16.3352C4.02991 16.2518 3.93257 16.1856 3.82511 16.1403C3.71764 16.0951 3.60223 16.0718 3.48564 16.0718C3.36904 16.0718 3.25363 16.0951 3.14617 16.1404C3.03872 16.1856 2.94138 16.2519 2.85989 16.3353C2.7784 16.4186 2.7144 16.5175 2.67164 16.6259C2.62889 16.7344 2.60824 16.8503 2.61091 16.9669C2.61359 17.0835 2.63953 17.1983 2.68721 17.3047C2.7349 17.4111 2.80337 17.5069 2.88859 17.5864C4.8456 19.5088 7.48116 20.5827 10.2244 20.5757H10.2812C13.0476 20.5673 15.6975 19.4611 17.6488 17.5L19.25 15.8999V19.0378C19.25 19.2699 19.3422 19.4925 19.5063 19.6566C19.6704 19.8207 19.8929 19.9128 20.125 19.9128C20.3571 19.9128 20.5796 19.8207 20.7437 19.6566C20.9078 19.4925 21 19.2699 21 19.0378V13.7878C21 13.5558 20.9078 13.3332 20.7437 13.1691C20.5796 13.005 20.3571 12.9128 20.125 12.9128Z" fill="white"/>
</svg>
